<svg xmlns="http://www.w3.org/2000/svg" viewBox="0 0 100 100"><path d="M64.7 56.4c-.8-.6-1.7-.6-2.5 0-1.3.9-2.6 1.8-3.8 2.8-1.3 1.1-2 1.3-3.5.4-1.3-.8-2.5-1.6-3.7-2.5-3.9-2.9-7-6.5-9.5-10.6-1.2-2-1-3.2.7-4.8.5-.4 1-.9 1.4-1.3 1.1-1.1 1.3-2.4.8-3.8-.3-.7-.6-1.4-1.1-2-.9-1.2-1.9-2.4-3-3.4-1.8-1.7-3.8-3.2-6.2-4-2.3-.7-4.3 0-5.6 2.1-.4.7-.8 1.5-1 2.2-1.5 5.1-1.1 10.1 1.1 14.9 1.7 3.9 4.1 7.4 6.8 10.8C40.8 63.6 47 68.7 54.8 72c3 1.2 6.1 2.2 9.4 2.2 1.8 0 3.6-.3 5.3-1 4-1.8 6.3-6.2 2.5-10.5-2.2-2.5-4.6-4.5-7.3-6.3z"/><path d="M50.3 5C25.3 5 4.8 25.4 4.8 50.5S25.3 96 50.3 96s45.5-20.4 45.5-45.5S75.4 5 50.3 5zm0 88C26.9 93 7.8 74 7.8 50.5S26.9 8 50.3 8s42.5 19 42.5 42.5S73.8 93 50.3 93z"/></svg>